<?xml version="1.0" standalone="no"?><!DOCTYPE svg PUBLIC "-//W3C//DTD SVG 1.1//EN" "http://www.w3.org/Graphics/SVG/1.1/DTD/svg11.dtd"><svg class="icon" width="48px" height="48.00px" viewBox="0 0 1024 1024" version="1.1" xmlns="http://www.w3.org/2000/svg"><path d="M740.096 441.088a65.28 65.28 0 0 0-54.336-50.368l-94.336-13.888-46.72 107.328-6.08-52.864a3.2 3.2 0 0 0-3.2-2.944h-26.752a3.264 3.264 0 0 0-3.264 2.944l-5.44 54.208-47.36-108.672-94.464 13.888a65.344 65.344 0 0 0-54.272 50.368l-23.232 103.936h482.88l-23.424-103.936z" fill="#5fc27e" /><path d="M489.344 380.736c0 9.792 8.128 22.848 12.992 27.776 4.928 4.928 13.12 4.928 19.648 4.928 6.592 0 14.784 0 19.712-4.928 4.864-4.928 12.992-17.984 12.992-27.776 0.064-11.456-19.904-13.12-32.64-13.12s-32.768 1.664-32.704 13.12z" fill="#5fc27e" /><path d="M422.528 209.92a122.624 99.456 90 1 0 198.912 0 122.624 99.456 90 1 0-198.912 0Z" fill="#5fc27e" /><path d="M96.512 577.024v90.624h186.944v268.992h457.024v-268.992h187.008V577.024H96.512z m520.064 185.984h-47.552v103.616H454.976v-103.616h-47.488v-76.352h209.088v76.352z" fill="#5fc27e" /></svg>