<?xml version="1.0" standalone="no"?><!DOCTYPE svg PUBLIC "-//W3C//DTD SVG 1.1//EN" "http://www.w3.org/Graphics/SVG/1.1/DTD/svg11.dtd"><svg class="icon" width="48px" height="48.00px" viewBox="0 0 1024 1024" version="1.1" xmlns="http://www.w3.org/2000/svg"><path d="M491.725628 1023.999815a103.769453 103.769453 0 0 1-63.461191-21.576558L61.610729 720.56099a104.33596 104.33596 0 0 1-19.138111-146.343746L449.311434 45.037371a104.803945 104.803945 0 0 1 120.764687-33.571746 82.586987 82.586987 0 0 0 36.712169 5.972963L825.004636 0.3202a96.811259 96.811259 0 0 1 103.030529 79.200255l40.899401 222.686832a49.12608 49.12608 0 0 0 10.431133 22.167697 103.83103 103.83103 0 0 1 2.019724 129.742604L574.558922 983.297461a104.237437 104.237437 0 0 1-82.833294 40.702354z m-27.574152-68.264191a45.49304 45.49304 0 0 0 63.719813-8.362148l406.838816-529.192188a45.222102 45.222102 0 0 0-0.849761-56.490681 107.821215 107.821215 0 0 1-22.832728-48.867457L870.115899 90.136319a38.066862 38.066862 0 0 0-40.505308-31.133299L611.394245 76.146039a140.88803 140.88803 0 0 1-62.808475-9.85231 45.640825 45.640825 0 0 0-52.586703 14.63068L89.160251 610.153544a45.443779 45.443779 0 0 0 8.349832 63.719813l366.641393 281.862267z" fill="#f44455" /><path d="M651.333046 472.332045a146.122069 146.122069 0 1 1 116.134101-57.069504 145.136838 145.136838 0 0 1-96.885151 55.813335 146.799415 146.799415 0 0 1-19.24895 1.256169z m0.467984-227.317417a82.291417 82.291417 0 0 0-10.689756 0.701978 81.195348 81.195348 0 1 0 74.88987 129.988911 81.207663 81.207663 0 0 0-64.200114-130.690889z" fill="#f44455" /></svg>